<svg xmlns="http://www.w3.org/2000/svg" version="1.1" xmlns:xlink="http://www.w3.org/1999/xlink" xmlns:svgjs="http://svgjs.dev/svgjs" width="1440" height="560" preserveAspectRatio="none" viewBox="0 0 1440 560"><g mask="url(&quot;#SvgjsMask1000&quot;)" fill="none"><rect width="1440" height="560" x="0" y="0" fill="#0e2a47"></rect><path d="M720 673.82C837.16 674.64 963.44 688.61 1052.52 612.52 1146.43 532.28 1194.54 402.77 1180.97 280 1168.43 166.37 1075.13 85.69 986.39 13.61 909.07-49.19 819.62-93.49 720-94.48 619.33-95.5 526.74-54.8 448.2 8.2 357.76 80.76 263.96 164.57 253.15 280 241.65 402.88 297.75 528.3 392.1 607.9 480.71 682.63 604.09 673.01 720 673.82" fill="#1c538e"></path><path d="M720 534.83C795.81 535.35 877.52 544.4 935.16 495.16 995.92 443.24 1027.05 359.44 1018.28 280 1010.16 206.48 949.79 154.27 892.37 107.63 842.34 67 784.46 38.33 720 37.69 654.86 37.03 594.95 63.37 544.13 104.13 485.61 151.08 424.91 205.31 417.92 280 410.48 359.51 446.78 440.67 507.83 492.17 565.16 540.52 645 534.3 720 534.83" fill="#2774c6"></path><path d="M720 395.83C754.46 396.07 791.6 400.18 817.8 377.8 845.42 354.2 859.57 316.11 855.58 280 851.89 246.58 824.45 222.85 798.35 201.65 775.61 183.18 749.3 170.15 720 169.86 690.39 169.56 663.16 181.53 640.06 200.06 613.46 221.4 585.87 246.05 582.69 280 579.31 316.14 595.81 353.03 623.56 376.44 649.62 398.42 685.91 395.59 720 395.83" fill="#488fdb"></path></g><defs><mask id="SvgjsMask1000"><rect width="1440" height="560" fill="#ffffff"></rect></mask></defs></svg>