<svg xmlns="http://www.w3.org/2000/svg" version="1.1" xmlns:xlink="http://www.w3.org/1999/xlink" xmlns:svgjs="http://svgjs.dev/svgjs" width="1440" height="560" preserveAspectRatio="none" viewBox="0 0 1440 560"><g mask="url(&quot;#SvgjsMask1014&quot;)" fill="none"><rect width="1440" height="560" x="0" y="0" fill="#0e2a47"></rect><path d="M0,436.156C80.526,450.656,162.712,402.72,223.914,348.416C280.937,297.82,292.113,217.207,324.527,148.207C357.375,78.285,427.946,16.507,415.667,-59.764C403.387,-136.038,325.094,-181.531,263.857,-228.633C212.36,-268.244,148.287,-279.115,90.898,-309.569C14.764,-349.97,-42.409,-444.707,-128.225,-436.694C-212.287,-428.844,-271.236,-344.784,-313.663,-271.791C-352.046,-205.757,-352.169,-127.072,-352.588,-50.694C-352.959,16.804,-347.826,84.792,-315.947,144.288C-285.222,201.63,-225.25,231.996,-177.464,276.14C-117.747,331.306,-80.011,421.748,0,436.156" fill="#091b2e"></path><path d="M1440 1156.3220000000001C1549.132 1171.04 1643.989 1078.8229999999999 1726.725 1006.152 1800.911 940.992 1848.808 855.179 1886.673 763.989 1923.4180000000001 675.496 1941.719 583.65 1941.9470000000001 487.831 1942.2069999999999 378.73699999999997 1961.9560000000001 252.01 1888.084 171.733 1814.195 91.43799999999999 1682.367 121.88099999999997 1577.4850000000001 91.76999999999998 1473.446 61.90100000000001 1377.343-37.48000000000002 1274.249-4.495999999999981 1170.938 28.557000000000016 1152.681 167.517 1082.425 250.16000000000003 1013.0899999999999 331.719 869.546 370.344 864.68 477.281 859.695 586.828 995.755 644.789 1060.439 733.34 1109.54 800.559 1143.4189999999999 873.0260000000001 1199.0140000000001 934.981 1273.364 1017.837 1329.675 1141.443 1440 1156.3220000000001" fill="#133960"></path></g><defs><mask id="SvgjsMask1014"><rect width="1440" height="560" fill="#ffffff"></rect></mask></defs></svg>